<?xml version="1.0" encoding="iso-8859-1"?>
<!-- Generator: Adobe Illustrator 18.1.1, SVG Export Plug-In . SVG Version: 6.00 Build 0)  -->
<svg xmlns="http://www.w3.org/2000/svg" xmlns:xlink="http://www.w3.org/1999/xlink" version="1.1" id="Capa_1" x="0px" y="0px" viewBox="0 0 306.627 306.627" style="enable-background:new 0 0 306.627 306.627;" xml:space="preserve" width="512px" height="512px">
<g>
	<g>
		<path d="M171.902,85.013c0.022-0.022,0.049-0.038,0.071-0.06c-10.041-2.85-20.244-4.705-30.665-5.548    c-0.163,0.245-0.348,0.468-0.511,0.713c-0.761-0.016-1.501-0.114-2.268-0.114c-62.582,0-113.312,50.73-113.312,113.312    s50.73,113.312,113.312,113.312s113.312-50.73,113.312-113.312C251.84,142.351,218.194,99.263,171.902,85.013z M100.123,193.038    c-17.236,0-31.209-13.973-31.209-31.209s13.973-31.209,31.209-31.209c17.236,0,31.209,13.973,31.209,31.209    C131.327,179.065,117.359,193.038,100.123,193.038z" fill="#FFFFFF"/>
		<path d="M181.937,76.615c5.173-3.682,10.829-6.913,17.122-9.622c6.81-2.937,8.278-12.804,4.879-18.607    c-4.079-6.967-11.797-7.81-18.602-4.879c-13.946,6.01-26.282,14.68-36.121,25.7C160.322,70.594,171.217,73.096,181.937,76.615z" fill="#FFFFFF"/>
		<path d="M271.617,14.751c-18.264,7.31-36.523,14.637-54.527,22.578c-9.611,4.237-1.3,18.292,8.235,14.087    c16.714-7.37,33.673-14.152,50.627-20.935C285.6,26.624,281.396,10.835,271.617,14.751z" fill="#FFFFFF"/>
		<path d="M250.573,67.325c-6.141-2.159-11.77-5.548-18.128-7.25c-10.176-2.725-14.49,13.016-4.34,15.735    c6.347,1.702,11.961,5.08,18.128,7.25c4.199,1.479,8.92-1.637,10.035-5.7C257.513,72.845,254.761,68.799,250.573,67.325z" fill="#FFFFFF"/>
		<path d="M218.194,24.786c1.42-4.264,2.991-9.197,4.618-12.553c1.936-4.003,1.131-8.784-2.926-11.161    c-3.612-2.116-9.225-1.077-11.161,2.926c-2.562,5.292-4.406,10.889-6.26,16.453c-1.409,4.221,1.583,8.904,5.7,10.035    C212.619,31.71,216.791,29.001,218.194,24.786z" fill="#FFFFFF"/>
		<path d="M187.251,31.476c3.633-2.127,5.439-7.484,2.926-11.161c-4.041-5.912-8.92-11.107-13.968-16.154    c-7.446-7.446-18.982,4.09-11.536,11.536c4.063,4.063,8.229,8.191,11.417,12.853C178.592,32.21,183.21,33.842,187.251,31.476z" fill="#FFFFFF"/>
	</g>
</g>
<g>
</g>
<g>
</g>
<g>
</g>
<g>
</g>
<g>
</g>
<g>
</g>
<g>
</g>
<g>
</g>
<g>
</g>
<g>
</g>
<g>
</g>
<g>
</g>
<g>
</g>
<g>
</g>
<g>
</g>
</svg>
