<?xml version="1.0" encoding="iso-8859-1"?>
<!-- Generator: Adobe Illustrator 19.0.0, SVG Export Plug-In . SVG Version: 6.00 Build 0)  -->
<svg xmlns="http://www.w3.org/2000/svg" xmlns:xlink="http://www.w3.org/1999/xlink" version="1.1" id="Layer_1" x="0px" y="0px" viewBox="0 0 512 512" style="enable-background:new 0 0 512 512;" xml:space="preserve" width="512px" height="512px">
<g>
	<g>
		<path d="M409.597,44.931h-0.144c-5.771,0-10.449,4.678-10.449,10.449c0,5.771,4.678,10.449,10.449,10.449h0.144    c5.771,0,10.449-4.678,10.449-10.449C420.046,49.609,415.368,44.931,409.597,44.931z" fill="#FFFFFF"/>
	</g>
</g>
<g>
	<g>
		<path d="M446.171,0H65.829C60.058,0,55.38,4.678,55.38,10.449v459.755C55.38,493.25,74.129,512,97.176,512h317.649    c23.046,0,41.796-18.75,41.796-41.796V10.449C456.62,4.678,451.942,0,446.171,0z M435.722,470.204    c0,11.523-9.375,20.898-20.898,20.898H97.176c-11.523,0-20.898-9.375-20.898-20.898V65.829h301.969    c5.771,0,10.449-4.678,10.449-10.449c0-5.771-4.678-10.449-10.449-10.449H76.278V20.898h359.445V470.204z" fill="#FFFFFF"/>
	</g>
</g>
<g>
	<g>
		<path d="M301.201,392.243c-5.771,0-10.449,4.678-10.449,10.449v0.107c0,5.771,4.678,10.449,10.449,10.449    s10.449-4.678,10.449-10.449v-0.107C311.65,396.921,306.972,392.243,301.201,392.243z" fill="#FFFFFF"/>
	</g>
</g>
<g>
	<g>
		<path d="M232.191,172.722c-5.771,0-10.449,4.678-10.449,10.449v0.107c0,5.771,4.678,10.449,10.449,10.449    c5.771,0,10.449-4.678,10.449-10.449v-0.107C242.64,177.4,237.962,172.722,232.191,172.722z" fill="#FFFFFF"/>
	</g>
</g>
<g>
	<g>
		<path d="M203.631,170.412c-5.771,0-10.449,4.678-10.449,10.449v0.107c0,5.771,4.678,10.449,10.449,10.449    c5.771,0,10.449-4.678,10.449-10.449v-0.107C214.08,175.09,209.402,170.412,203.631,170.412z" fill="#FFFFFF"/>
	</g>
</g>
<g>
	<g>
		<path d="M175.071,168.874c-5.771,0-10.449,4.678-10.449,10.449v0.107c0,5.771,4.678,10.449,10.449,10.449    c5.771,0,10.449-4.678,10.449-10.449v-0.107C185.52,173.552,180.842,168.874,175.071,168.874z" fill="#FFFFFF"/>
	</g>
</g>
<g>
	<g>
		<path d="M146.51,167.335c-5.771,0-10.449,4.678-10.449,10.449v0.107c0,5.771,4.678,10.449,10.449,10.449    s10.449-4.678,10.449-10.449v-0.107C156.959,172.013,152.281,167.335,146.51,167.335z" fill="#FFFFFF"/>
	</g>
</g>
<g>
	<g>
		<path d="M384.557,197.751h0.001V149.88h16.417c5.771,0,10.449-4.678,10.449-10.449v-30.267c0-5.771-4.678-10.449-10.449-10.449    h-16.417v-9.899c0-5.771-4.678-10.449-10.449-10.449h-76.558c-19.216,0-35.435,13.039-40.299,30.732l-128.44-13.923    c-0.374-0.041-0.75-0.061-1.126-0.061c-6.422,0-27.377,2.418-27.377,33.533v55.579c0,30.155,19.68,33.357,26.741,33.526    l62.69,6.796v58.793c0,3.461,0.529,6.8,1.507,9.943c-9.336,4.3-16.981,12.191-21.501,22.095l-0.349-0.349    c-4.583-4.584-10.677-7.108-17.159-7.108s-12.576,2.524-17.159,7.107l-48.433,48.433c-4.583,4.584-7.107,10.678-7.107,17.159    c0,6.483,2.524,12.576,7.107,17.159l27.745,27.745c4.731,4.731,10.944,7.097,17.159,7.096c6.213,0,12.429-2.366,17.159-7.096    l48.433-48.433c4.583-4.584,7.107-10.678,7.107-17.159s-2.524-12.576-7.107-17.159l-10.696-10.695    c1.457-10.889,8.678-19.478,17.777-21.155c5.256,3.64,11.597,5.819,18.432,5.943l33.099,3.588v104.816    c0,23.046,18.75,41.796,41.796,41.796h76.558c5.771,0,10.449-4.678,10.449-10.449v-12.288h16.417    c5.771,0,10.449-4.678,10.449-10.449v-30.266c0-5.771-4.678-10.449-10.449-10.449h-16.417V328.37V197.751z M384.559,119.615h5.968    v9.369h-5.968V119.615z M182.366,362.319l-48.433,48.433c-1.314,1.313-3.451,1.313-4.765,0l-27.745-27.745    c-0.859-0.859-0.987-1.861-0.987-2.382c0-0.521,0.129-1.523,0.987-2.381l48.433-48.433c0.859-0.859,1.861-0.987,2.382-0.987    c0.521,0,1.523,0.128,2.381,0.987l27.745,27.745c0.859,0.858,0.986,1.861,0.986,2.381    C183.353,360.458,183.225,361.461,182.366,362.319z M128.813,196.925c-0.374-0.041-0.75-0.061-1.126-0.061    c-2.264,0-6.479,0-6.479-12.636v-55.579c0-11.72,3.626-12.569,5.959-12.631l8.894,0.964v37.822    c0,5.771,4.678,10.449,10.449,10.449c5.771,0,10.449-4.678,10.449-10.449v-35.557l7.662,0.831v36.265    c0,5.771,4.678,10.449,10.449,10.449c5.771,0,10.449-4.678,10.449-10.449v-34l7.662,0.831v34.708    c0,5.771,4.678,10.449,10.449,10.449c5.771,0,10.449-4.678,10.449-10.449V125.44l7.662,0.831v33.92    c0,5.771,4.678,10.449,10.449,10.449c5.771,0,10.449-4.678,10.449-10.449v-31.655l13.117,1.422v80.727L128.813,196.925z     M255.757,299.438l-31.356-3.399c-0.374-0.041-0.75-0.061-1.126-0.061c-6.966,0-12.635-5.669-12.635-12.636v-56.528l24.959,2.705    c-10.063,8.638-16.456,21.436-16.456,35.707c0,5.771,4.678,10.449,10.449,10.449c5.771,0,10.449-4.678,10.449-10.449    c0-10.714,6.476-19.94,15.716-23.981V299.438z M363.66,317.922h-19.692V208.2h19.692V317.922z M363.66,109.166v30.267v47.871    h-30.141c-5.771,0-10.449,4.678-10.449,10.449v130.619c0,5.771,4.678,10.449,10.449,10.449h30.141v64.799v30.265v12.288h-66.109    c-11.523,0-20.898-9.375-20.898-20.898V120.579v-0.416c0-9.14,5.908-16.909,14.098-19.739v279.289    c0,5.771,4.678,10.449,10.449,10.449s10.449-4.678,10.449-10.449V99.265h52.011V109.166z M384.559,414.068h5.968v9.367h-5.968    V414.068z" fill="#FFFFFF"/>
	</g>
</g>
<g>
	<g>
		<path d="M343.522,114.875c-5.771,0-10.449,4.678-10.449,10.449v38.622c0,5.771,4.678,10.449,10.449,10.449    c5.771,0,10.449-4.678,10.449-10.449v-38.622C353.971,119.553,349.293,114.875,343.522,114.875z" fill="#FFFFFF"/>
	</g>
</g>
<g>
</g>
<g>
</g>
<g>
</g>
<g>
</g>
<g>
</g>
<g>
</g>
<g>
</g>
<g>
</g>
<g>
</g>
<g>
</g>
<g>
</g>
<g>
</g>
<g>
</g>
<g>
</g>
<g>
</g>
</svg>
