<?xml version="1.0" encoding="iso-8859-1"?>
<!-- Generator: Adobe Illustrator 19.0.0, SVG Export Plug-In . SVG Version: 6.00 Build 0)  -->
<svg xmlns="http://www.w3.org/2000/svg" xmlns:xlink="http://www.w3.org/1999/xlink" version="1.1" id="Layer_1" x="0px" y="0px" viewBox="0 0 512 512" style="enable-background:new 0 0 512 512;" xml:space="preserve" width="512px" height="512px">
<g>
	<g>
		<path d="M256,0C114.837,0,0,114.837,0,256s114.837,256,256,256s256-114.837,256-256S397.163,0,256,0z M389.931,448.427    l-54.485-18.176l-4.352-17.387c52.928-9.003,80.235-24.896,81.429-25.6c3.029-1.771,4.907-4.992,5.163-8.491    c0.256-3.499-1.323-6.955-4.053-9.131c-0.363-0.277-36.16-29.931-36.16-132.587c0-87.296-20.523-131.563-61.035-131.563h-5.717    c-14.464-13.973-25.451-20.16-54.72-20.16c-38.059,0-121.472,38.208-121.472,151.701c0,102.656-35.797,132.309-36.032,132.501    c-2.837,2.133-4.437,5.525-4.267,9.067c0.192,3.563,2.112,6.763,5.163,8.597c1.195,0.725,28.224,16.683,81.493,25.685    l-4.331,17.344l-54.485,18.176C61.269,405.973,21.333,335.616,21.333,256c0-129.387,105.28-234.667,234.667-234.667    S490.667,126.613,490.667,256C490.667,335.616,450.731,405.973,389.931,448.427z" fill="#FFFFFF"/>
	</g>
</g>
<g>
</g>
<g>
</g>
<g>
</g>
<g>
</g>
<g>
</g>
<g>
</g>
<g>
</g>
<g>
</g>
<g>
</g>
<g>
</g>
<g>
</g>
<g>
</g>
<g>
</g>
<g>
</g>
<g>
</g>
</svg>
