<?xml version="1.0" encoding="iso-8859-1"?>
<!-- Generator: Adobe Illustrator 16.0.0, SVG Export Plug-In . SVG Version: 6.00 Build 0)  -->
<!DOCTYPE svg PUBLIC "-//W3C//DTD SVG 1.1//EN" "http://www.w3.org/Graphics/SVG/1.1/DTD/svg11.dtd">
<svg xmlns="http://www.w3.org/2000/svg" xmlns:xlink="http://www.w3.org/1999/xlink" version="1.1" id="Capa_1" x="0px" y="0px" width="512px" height="512px" viewBox="0 0 109.382 109.382" style="enable-background:new 0 0 109.382 109.382;" xml:space="preserve">
<g>
	<g>
		<path d="M73.708,40.837c0.088,0.842,0.075,1.685-0.027,2.513c2.887,1.89,5.482,4.187,7.689,6.825    c-3.293,1.502-6.802-3.977-9.877-1.374c-3.078,2.603,1.655,8.52-1.421,11.833c-0.473-0.474-1.893-1.42-2.604-2.13    c-8.993,4.732,1.421,13.488,7.337,10.886c-0.813,8.288,8.075,7.099,14.188,8.833c-0.925,5.513-3.144,10.591-6.339,14.907    c-3.348-1.156-6.088-1.507-9.271-2.442c-1.42-0.236-2.604,1.657-4.969,0.947c-2.84-0.947-1.895-6.626-5.207-6.626    c-11.358,0.236,1.42,14.672,0.236,18.222c1.42-0.237,3.551,0.71,4.971,0.71c0.041,0.146,0.07,0.291,0.104,0.438    c-4.242,1.846-8.916,2.875-13.83,2.875c-12.762,0-23.932-6.911-29.986-17.183c0.039,0.038,0.082,0.068,0.121,0.107    c0.875-2.176,2.191-4.396,2.443-5.903c2.84,8.164,9.582,1.775,15.973,0c-1.775-4.26-3.549-9.229-3.904-14.199    c2.256-0.281,7.555,1.379,8.17-2.108c0.615-3.488-6.148-10.231-14.205-14.93c0,0-1.42,0.71-1.064,0.71    c-1.5,4.715-5.33,5.537-9.223,4.362c3.16-6.941,8.535-12.667,15.215-16.274c-0.313-0.627-0.563-1.3-0.738-2.022    c-11.713,6.195-19.719,18.502-19.719,32.652c0,20.355,16.561,36.917,36.918,36.917c20.355,0,36.918-16.562,36.918-36.917    C91.608,59.061,84.423,47.305,73.708,40.837z" fill="#FFFFFF"/>
		<path d="M38.87,25.219c1.523,2.111,4.412,3.433,7.541,3.408c1.84-0.015,3.625-0.494,5.094-1.358    c2.207,1.254,5.145,1.619,7.771,0.923c1.478,0.833,3.271,1.28,5.101,1.267c2.317-0.018,4.508-0.76,6.106-2.054    c1.379,0.668,2.949,1.013,4.582,1c4.75-0.037,8.592-3.11,8.563-6.85c-0.025-3.21-2.873-5.888-6.719-6.551    c0.469-0.86,0.709-1.787,0.7-2.74c-0.028-3.618-3.631-6.563-8.276-6.846c-2.564-3.351-8.068-5.465-14.195-5.417    c-6.27,0.049-11.811,2.331-14.25,5.842c-3.465,0.97-5.797,3.429-5.947,6.258c-3.455,0.953-5.797,3.531-5.773,6.459    C29.198,22.57,33.647,25.757,38.87,25.219z" fill="#FFFFFF"/>
		<path d="M71.345,39.563c0-1.902-4.747-2.69-9.139-3.013c0.035-1.938,0.092-3.877,0.105-5.816c0.006-1.111-1.717-1.11-1.725,0    c-0.013,1.907-0.053,3.81-0.078,5.711c-1.871-0.094-3.543-0.112-4.563-0.112c-1.129,0-3.055,0.022-5.172,0.146    c-0.037-1.917-0.092-3.833-0.104-5.745c-0.008-1.11-1.73-1.111-1.723,0c0.014,1.958,0.061,3.912,0.092,5.867    c-4.197,0.352-8.49,1.153-8.49,2.962c0,1.807,4.283,2.609,8.477,2.961c-0.084,4.082-0.066,11.072-3.744,13.523    c-0.918,0.612-0.057,2.104,0.871,1.486c3.326-2.218,3.85-6.856,4.281-10.499c0.174-1.46,0.27-2.923,0.322-4.389    c2.123,0.124,4.059,0.147,5.189,0.147c1.027,0,2.713-0.019,4.6-0.115c0.037,1.126,0.092,2.252,0.183,3.38    c0.312,3.875,0.84,9.117,4.379,11.475c0.926,0.618,1.789-0.875,0.869-1.486c-3.615-2.411-3.531-9.188-3.72-12.979    c-0.008-0.165-0.006-0.33-0.012-0.496C66.628,42.248,71.345,41.459,71.345,39.563z M49.051,40.78    c-3.34-0.301-5.631-0.787-6.506-1.217c0.877-0.43,3.17-0.917,6.514-1.218C49.065,39.156,49.061,39.968,49.051,40.78z     M55.948,41.07c-1.875,0-3.594-0.059-5.145-0.157c0.012-0.899,0.008-1.8-0.002-2.7c1.551-0.099,3.271-0.158,5.146-0.158    c1.637,0,3.154,0.046,4.547,0.123c-0.004,0.923,0,1.846,0.014,2.77C59.112,41.024,57.589,41.07,55.948,41.07z M62.2,40.834    c-0.014-0.848-0.018-1.695-0.01-2.543c3.692,0.294,6.229,0.815,7.162,1.272C68.419,40.02,65.889,40.539,62.2,40.834z" fill="#FFFFFF"/>
	</g>
</g>
<g>
</g>
<g>
</g>
<g>
</g>
<g>
</g>
<g>
</g>
<g>
</g>
<g>
</g>
<g>
</g>
<g>
</g>
<g>
</g>
<g>
</g>
<g>
</g>
<g>
</g>
<g>
</g>
<g>
</g>
</svg>
